<svg width="96" height="96" viewBox="0 0 96 96" fill="none" xmlns="http://www.w3.org/2000/svg">
<path d="M20 33H76L66 63H30L20 33Z" stroke="white" stroke-width="5" stroke-linecap="round" stroke-linejoin="round"/>
<path d="M36 54C39.3137 54 42 51.3137 42 48C42 44.6863 39.3137 42 36 42C32.6863 42 30 44.6863 30 48C30 51.3137 32.6863 54 36 54Z" stroke="white" stroke-width="5" stroke-linecap="round" stroke-linejoin="round"/>
<path d="M60 54C63.3137 54 66 51.3137 66 48C66 44.6863 63.3137 42 60 42C56.6863 42 54 44.6863 54 48C54 51.3137 56.6863 54 60 54Z" stroke="white" stroke-width="5" stroke-linecap="round" stroke-linejoin="round"/>
</svg>
