<svg width="96" height="96" viewBox="0 0 96 96" fill="none" xmlns="http://www.w3.org/2000/svg">
<path d="M76 40H20V70H76V40Z" stroke="white" stroke-width="5" stroke-linecap="round" stroke-linejoin="round"/>
<path d="M32 61C35.3137 61 38 58.3137 38 55C38 51.6863 35.3137 49 32 49C28.6863 49 26 51.6863 26 55C26 58.3137 28.6863 61 32 61Z" stroke="white" stroke-width="5" stroke-linecap="round" stroke-linejoin="round"/>
<path d="M64 61C67.3137 61 70 58.3137 70 55C70 51.6863 67.3137 49 64 49C60.6863 49 58 51.6863 58 55C58 58.3137 60.6863 61 64 61Z" stroke="white" stroke-width="5" stroke-linecap="round" stroke-linejoin="round"/>
<path d="M48 42V68" stroke="white" stroke-width="5" stroke-linecap="round" stroke-linejoin="round"/>
</svg>
