<svg width="96" height="96" viewBox="0 0 96 96" fill="none" xmlns="http://www.w3.org/2000/svg">
<path d="M18 23H77" stroke="white" stroke-width="5" stroke-linecap="round" stroke-linejoin="round"/>
<path d="M36.0269 23V32.8333" stroke="white" stroke-width="5" stroke-linecap="round" stroke-linejoin="round"/>
<path d="M58.9731 23V32.8333" stroke="white" stroke-width="5" stroke-linecap="round" stroke-linejoin="round"/>
<path d="M37.3161 31.8937L31.9689 34.3871C30.9845 34.8461 30.5586 36.0163 31.0177 37.0007L32.1259 39.3772C32.5849 40.3616 33.755 40.7875 34.7394 40.3285L40.0866 37.835C41.071 37.376 41.4969 36.2059 41.0379 35.2215L39.9297 32.8449C39.4707 31.8605 38.3005 31.4346 37.3161 31.8937Z" stroke="white" stroke-width="5" stroke-linecap="round" stroke-linejoin="round"/>
<path d="M63.032 34.3871L57.6848 31.8936C56.7004 31.4346 55.5302 31.8605 55.0712 32.8449L53.963 35.2214C53.504 36.2058 53.9299 37.376 54.9143 37.835L60.2615 40.3284C61.2459 40.7875 62.416 40.3616 62.875 39.3772L63.9832 37.0006C64.4423 36.0162 64.0164 34.8461 63.032 34.3871Z" stroke="white" stroke-width="5" stroke-linecap="round" stroke-linejoin="round"/>
<path d="M36.0291 39.0612L26.8513 67.25" stroke="white" stroke-width="5" stroke-linecap="round" stroke-linejoin="round"/>
<path d="M35.3729 40.0446L31.1118 72.1667" stroke="white" stroke-width="5" stroke-linecap="round" stroke-linejoin="round"/>
<path d="M58.9731 39.0612L68.1509 67.25" stroke="white" stroke-width="5" stroke-linecap="round" stroke-linejoin="round"/>
<path d="M59.6277 40.0446L63.8888 72.1667" stroke="white" stroke-width="5" stroke-linecap="round" stroke-linejoin="round"/>
</svg>
