<svg width="96" height="96" viewBox="0 0 96 96" fill="none" xmlns="http://www.w3.org/2000/svg">
<path d="M76 22H20C15.5817 22 12 25.5817 12 30V66C12 70.4183 15.5817 74 20 74H76C80.4183 74 84 70.4183 84 66V30C84 25.5817 80.4183 22 76 22Z" stroke="white" stroke-width="5" stroke-linecap="round" stroke-linejoin="round"/>
<path d="M24 37.2C25.7674 37.2 27.2001 35.7673 27.2001 34C27.2001 32.2327 25.7674 30.8 24 30.8C22.2327 30.8 20.8 32.2327 20.8 34C20.8 35.7673 22.2327 37.2 24 37.2Z" stroke="white" stroke-width="5" stroke-linecap="round" stroke-linejoin="round"/>
<path d="M40 37.2C41.7674 37.2 43.2001 35.7673 43.2001 34C43.2001 32.2327 41.7674 30.8 40 30.8C38.2327 30.8 36.8 32.2327 36.8 34C36.8 35.7673 38.2327 37.2 40 37.2Z" stroke="white" stroke-width="5" stroke-linecap="round" stroke-linejoin="round"/>
<path d="M56 37.2C57.7674 37.2 59.2001 35.7673 59.2001 34C59.2001 32.2327 57.7674 30.8 56 30.8C54.2327 30.8 52.8 32.2327 52.8 34C52.8 35.7673 54.2327 37.2 56 37.2Z" stroke="white" stroke-width="5" stroke-linecap="round" stroke-linejoin="round"/>
<path d="M72 37.2C73.7674 37.2 75.2 35.7673 75.2 34C75.2 32.2327 73.7674 30.8 72 30.8C70.2327 30.8 68.8 32.2327 68.8 34C68.8 35.7673 70.2327 37.2 72 37.2Z" stroke="white" stroke-width="5" stroke-linecap="round" stroke-linejoin="round"/>
<path d="M24 51.2C25.7674 51.2 27.2001 49.7673 27.2001 48C27.2001 46.2327 25.7674 44.8 24 44.8C22.2327 44.8 20.8 46.2327 20.8 48C20.8 49.7673 22.2327 51.2 24 51.2Z" stroke="white" stroke-width="5" stroke-linecap="round" stroke-linejoin="round"/>
<path d="M40 51.2C41.7674 51.2 43.2001 49.7673 43.2001 48C43.2001 46.2327 41.7674 44.8 40 44.8C38.2327 44.8 36.8 46.2327 36.8 48C36.8 49.7673 38.2327 51.2 40 51.2Z" stroke="white" stroke-width="5" stroke-linecap="round" stroke-linejoin="round"/>
<path d="M56 51.2C57.7674 51.2 59.2001 49.7673 59.2001 48C59.2001 46.2327 57.7674 44.8 56 44.8C54.2327 44.8 52.8 46.2327 52.8 48C52.8 49.7673 54.2327 51.2 56 51.2Z" stroke="white" stroke-width="5" stroke-linecap="round" stroke-linejoin="round"/>
<path d="M72 51.2C73.7674 51.2 75.2 49.7673 75.2 48C75.2 46.2327 73.7674 44.8 72 44.8C70.2327 44.8 68.8 46.2327 68.8 48C68.8 49.7673 70.2327 51.2 72 51.2Z" stroke="white" stroke-width="5" stroke-linecap="round" stroke-linejoin="round"/>
<path d="M24 65.2C25.7674 65.2 27.2001 63.7673 27.2001 62C27.2001 60.2327 25.7674 58.8 24 58.8C22.2327 58.8 20.8 60.2327 20.8 62C20.8 63.7673 22.2327 65.2 24 65.2Z" stroke="white" stroke-width="5" stroke-linecap="round" stroke-linejoin="round"/>
<path d="M40 65.2C41.7674 65.2 43.2001 63.7673 43.2001 62C43.2001 60.2327 41.7674 58.8 40 58.8C38.2327 58.8 36.8 60.2327 36.8 62C36.8 63.7673 38.2327 65.2 40 65.2Z" stroke="white" stroke-width="5" stroke-linecap="round" stroke-linejoin="round"/>
<path d="M56 65.2C57.7674 65.2 59.2001 63.7673 59.2001 62C59.2001 60.2327 57.7674 58.8 56 58.8C54.2327 58.8 52.8 60.2327 52.8 62C52.8 63.7673 54.2327 65.2 56 65.2Z" stroke="white" stroke-width="5" stroke-linecap="round" stroke-linejoin="round"/>
<path d="M72 65.2C73.7674 65.2 75.2 63.7673 75.2 62C75.2 60.2327 73.7674 58.8 72 58.8C70.2327 58.8 68.8 60.2327 68.8 62C68.8 63.7673 70.2327 65.2 72 65.2Z" stroke="white" stroke-width="5" stroke-linecap="round" stroke-linejoin="round"/>
</svg>
