<svg width="96" height="96" viewBox="0 0 96 96" fill="none" xmlns="http://www.w3.org/2000/svg">
<path d="M46 24H30C25.5817 24 22 27.5817 22 32V64C22 68.4183 25.5817 72 30 72H46C50.4183 72 54 68.4183 54 64V32C54 27.5817 50.4183 24 46 24Z" stroke="white" stroke-width="5" stroke-linecap="round" stroke-linejoin="round"/>
<path d="M38 44.8C40.6509 44.8 42.7999 42.651 42.7999 40C42.7999 37.349 40.6509 35.2 38 35.2C35.349 35.2 33.2 37.349 33.2 40C33.2 42.651 35.349 44.8 38 44.8Z" stroke="white" stroke-width="5" stroke-linecap="round" stroke-linejoin="round"/>
<path d="M38 64C42.4183 64 46 60.4183 46 56C46 51.5817 42.4183 48 38 48C33.5817 48 30 51.5817 30 56C30 60.4183 33.5817 64 38 64Z" stroke="white" stroke-width="5" stroke-linecap="round" stroke-linejoin="round"/>
<path d="M64 42C70 46 70 50 64 54" stroke="white" stroke-width="5" stroke-linecap="round" stroke-linejoin="round"/>
<path d="M72 36C80 44 80 52 72 60" stroke="white" stroke-width="5" stroke-linecap="round" stroke-linejoin="round"/>
</svg>
