<svg width="96" height="96" viewBox="0 0 96 96" fill="none" xmlns="http://www.w3.org/2000/svg">
<path d="M16 66.3668H80" stroke="white" stroke-width="5" stroke-linecap="round" stroke-linejoin="round"/>
<path d="M39 48.3668H31C29.3431 48.3668 28 49.7099 28 51.3668V59.3668C28 61.0236 29.3431 62.3668 31 62.3668H39C40.6569 62.3668 42 61.0236 42 59.3668V51.3668C42 49.7099 40.6569 48.3668 39 48.3668Z" stroke="white" stroke-width="5" stroke-linecap="round" stroke-linejoin="round"/>
<path d="M61 48.3668H53C51.3431 48.3668 50 49.7099 50 51.3668V59.3668C50 61.0236 51.3431 62.3668 53 62.3668H61C62.6569 62.3668 64 61.0236 64 59.3668V51.3668C64 49.7099 62.6569 48.3668 61 48.3668Z" stroke="white" stroke-width="5" stroke-linecap="round" stroke-linejoin="round"/>
<path d="M35 48.3668L30 28.3668" stroke="white" stroke-width="5" stroke-linecap="round" stroke-linejoin="round"/>
<path d="M57 48.3668L62 28.3668" stroke="white" stroke-width="5" stroke-linecap="round" stroke-linejoin="round"/>
<path d="M48 34.1668C48.9941 34.1668 49.7999 33.3609 49.7999 32.3668C49.7999 31.3727 48.9941 30.5668 48 30.5668C47.0058 30.5668 46.2 31.3727 46.2 32.3668C46.2 33.3609 47.0058 34.1668 48 34.1668Z" stroke="white" stroke-width="5" stroke-linecap="round" stroke-linejoin="round"/>
<path d="M42 28.3668C42.7507 27.5155 43.674 26.8337 44.7085 26.3668C45.743 25.8998 46.865 25.6583 48 25.6583C49.135 25.6583 50.257 25.8998 51.2915 26.3668C52.326 26.8337 53.2493 27.5155 54 28.3668" stroke="white" stroke-width="5" stroke-linecap="round" stroke-linejoin="round"/>
<path d="M38 24.3668C39.0946 22.7166 40.5806 21.3629 42.3255 20.4265C44.0703 19.4901 46.0198 19 48 19C49.9802 19 51.9297 19.4901 53.6745 20.4265C55.4194 21.3629 56.9054 22.7166 58 24.3668" stroke="white" stroke-width="5" stroke-linecap="round" stroke-linejoin="round"/>
</svg>
